<svg version="1.1" viewBox="0.0 0.0 744.5459317585302 253.63517060367454" fill="none" stroke="none" stroke-linecap="square" stroke-miterlimit="10" xmlns:xlink="http://www.w3.org/1999/xlink" xmlns="http://www.w3.org/2000/svg"><clipPath id="p.0"><path d="m0 0l744.54596 0l0 253.63518l-744.54596 0l0 -253.63518z" clip-rule="nonzero"/></clipPath><g clip-path="url(#p.0)"><path fill="#000000" fill-opacity="0.0" d="m0 0l744.54596 0l0 253.63518l-744.54596 0z" fill-rule="evenodd"/><path fill="#ffffff" d="m27.023623 105.17603l0 0c0 -4.9895096 4.044794 -9.034302 9.0343 -9.034302l36.136124 0l0 0c2.3960419 0 4.6939545 0.951828 6.388214 2.6460876c1.6942596 1.6942596 2.6460876 3.9921722 2.6460876 6.388214l0 39.191246c0 4.989502 -4.044792 9.034302 -9.034302 9.034302l-36.136124 0l0 0c-4.989506 0 -9.0343 -4.0448 -9.0343 -9.034302z" fill-rule="evenodd"/><path stroke="#cc0000" stroke-width="1.0" stroke-linejoin="round" stroke-linecap="butt" d="m27.023623 105.17603l0 0c0 -4.9895096 4.044794 -9.034302 9.0343 -9.034302l36.136124 0l0 0c2.3960419 0 4.6939545 0.951828 6.388214 2.6460876c1.6942596 1.6942596 2.6460876 3.9921722 2.6460876 6.388214l0 39.191246c0 4.989502 -4.044792 9.034302 -9.034302 9.034302l-36.136124 0l0 0c-4.989506 0 -9.0343 -4.0448 -9.0343 -9.034302z" fill-rule="evenodd"/><path fill="#000000" d="m45.622803 131.69165l-1.640625 0l0 -10.453125q-0.59375 0.5625 -1.5625 1.140625q-0.953125 0.5625 -1.71875 0.84375l0 -1.59375q1.375 -0.640625 2.40625 -1.5625q1.03125 -0.921875 1.453125 -1.78125l1.0625 0l0 13.40625z" fill-rule="nonzero"/><path fill="#ffffff" d="m33.818897 91.87945l0 0c0 -4.9895096 4.044796 -9.034302 9.034302 -9.034302l36.13612 0l0 0c2.3960495 0 4.6939545 0.9518204 6.388214 2.64608c1.6942673 1.6942673 2.6460876 3.9921722 2.6460876 6.3882217l0 39.19123c0 4.989517 -4.044792 9.034302 -9.034302 9.034302l-36.13612 0l0 0c-4.989506 0 -9.034302 -4.0447845 -9.034302 -9.034302z" fill-rule="evenodd"/><path stroke="#cc0000" stroke-width="1.0" stroke-linejoin="round" stroke-linecap="butt" d="m33.818897 91.87945l0 0c0 -4.9895096 4.044796 -9.034302 9.034302 -9.034302l36.13612 0l0 0c2.3960495 0 4.6939545 0.9518204 6.388214 2.64608c1.6942673 1.6942673 2.6460876 3.9921722 2.6460876 6.3882217l0 39.19123c0 4.989517 -4.044792 9.034302 -9.034302 9.034302l-36.13612 0l0 0c-4.989506 0 -9.034302 -4.0447845 -9.034302 -9.034302z" fill-rule="evenodd"/><path fill="#000000" d="m52.41808 118.395065l-1.640625 0l0 -10.453125q-0.59375 0.5625 -1.5625 1.140625q-0.953125 0.5625 -1.71875 0.84375l0 -1.59375q1.375 -0.640625 2.40625 -1.5625q1.03125 -0.921875 1.453125 -1.78125l1.0625 0l0 13.40625z" fill-rule="nonzero"/><path fill="#ffffff" d="m40.614174 80.62748l0 0c0 -4.9895096 4.044792 -9.034302 9.034302 -9.034302l36.136124 0l0 0c2.3960419 0 4.6939545 0.9518204 6.388214 2.64608c1.6942596 1.6942673 2.6460876 3.9921722 2.6460876 6.3882217l0 39.19124c0 4.9895096 -4.0448 9.034294 -9.034302 9.034294l-36.136124 0l0 0c-4.9895096 0 -9.034302 -4.0447845 -9.034302 -9.034294z" fill-rule="evenodd"/><path stroke="#cc0000" stroke-width="1.0" stroke-linejoin="round" stroke-linecap="butt" d="m40.614174 80.62748l0 0c0 -4.9895096 4.044792 -9.034302 9.034302 -9.034302l36.136124 0l0 0c2.3960419 0 4.6939545 0.9518204 6.388214 2.64608c1.6942596 1.6942673 2.6460876 3.9921722 2.6460876 6.3882217l0 39.19124c0 4.9895096 -4.0448 9.034294 -9.034302 9.034294l-36.136124 0l0 0c-4.9895096 0 -9.034302 -4.0447845 -9.034302 -9.034294z" fill-rule="evenodd"/><path fill="#000000" d="m59.213356 107.1431l-1.640625 0l0 -10.453125q-0.59375 0.5625 -1.5625 1.140625q-0.953125 0.5625 -1.71875 0.84375l0 -1.59375q1.375 -0.640625 2.40625 -1.5625q1.03125 -0.921875 1.453125 -1.78125l1.0625 0l0 13.40625z" fill-rule="nonzero"/><path fill="#ffffff" d="m51.498688 65.28627l0 0c0 -4.989506 4.044796 -9.034302 9.034302 -9.034302l36.136124 0l0 0c2.3960419 0 4.6939545 0.9518242 6.388214 2.6460876c1.6942596 1.6942596 2.6460876 3.9921684 2.6460876 6.388214l0 39.19124c0 4.9895096 -4.0448 9.034302 -9.034302 9.034302l-36.136124 0l0 0c-4.989506 0 -9.034302 -4.044792 -9.034302 -9.034302z" fill-rule="evenodd"/><path stroke="#cc0000" stroke-width="1.0" stroke-linejoin="round" stroke-linecap="butt" d="m51.498688 65.28627l0 0c0 -4.989506 4.044796 -9.034302 9.034302 -9.034302l36.136124 0l0 0c2.3960419 0 4.6939545 0.9518242 6.388214 2.6460876c1.6942596 1.6942596 2.6460876 3.9921684 2.6460876 6.388214l0 39.19124c0 4.9895096 -4.0448 9.034302 -9.034302 9.034302l-36.136124 0l0 0c-4.989506 0 -9.034302 -4.044792 -9.034302 -9.034302z" fill-rule="evenodd"/><path fill="#000000" d="m70.09787 91.80189l-1.640625 0l0 -10.453125q-0.59375 0.5625 -1.5625 1.140625q-0.953125 0.5625 -1.71875 0.84375l0 -1.59375q1.375 -0.640625 2.40625 -1.5625q1.03125 -0.921875 1.453125 -1.78125l1.0625 0l0 13.40625z" fill-rule="nonzero"/><path fill="#ffffff" d="m60.343834 47.91619l0 0c0 -4.989506 4.044792 -9.034302 9.034302 -9.034302l36.136116 0l0 0c2.3960495 0 4.693962 0.9518242 6.3882217 2.6460876c1.6942596 1.6942596 2.64608 3.9921684 2.64608 6.388214l0 39.19124c0 4.9895096 -4.044792 9.034302 -9.034302 9.034302l-36.136116 0l0 0c-4.9895096 0 -9.034302 -4.044792 -9.034302 -9.034302z" fill-rule="evenodd"/><path stroke="#cc0000" stroke-width="1.0" stroke-linejoin="round" stroke-linecap="butt" d="m60.343834 47.91619l0 0c0 -4.989506 4.044792 -9.034302 9.034302 -9.034302l36.136116 0l0 0c2.3960495 0 4.693962 0.9518242 6.3882217 2.6460876c1.6942596 1.6942596 2.64608 3.9921684 2.64608 6.388214l0 39.19124c0 4.9895096 -4.044792 9.034302 -9.034302 9.034302l-36.136116 0l0 0c-4.9895096 0 -9.034302 -4.044792 -9.034302 -9.034302z" fill-rule="evenodd"/><path fill="#000000" d="m72.77114 67.83806q0 -2.359375 0.484375 -3.796875q0.484375 -1.453125 1.4375 -2.234375q0.96875 -0.78125 2.421875 -0.78125q1.078125 0 1.890625 0.4375q0.8125 0.421875 1.328125 1.25q0.53125 0.8125 0.828125 1.984375q0.3125 1.15625 0.3125 3.140625q0 2.359375 -0.484375 3.8125q-0.484375 1.4375 -1.453125 2.234375q-0.953125 0.78125 -2.421875 0.78125q-1.921875 0 -3.03125 -1.390625q-1.3125 -1.671875 -1.3125 -5.4375zm1.671875 0q0 3.296875 0.765625 4.390625q0.78125 1.078125 1.90625 1.078125q1.140625 0 1.90625 -1.09375q0.765625 -1.09375 0.765625 -4.375q0 -3.296875 -0.765625 -4.375q-0.765625 -1.078125 -1.921875 -1.078125q-1.125 0 -1.796875 0.953125q-0.859375 1.21875 -0.859375 4.5zm9.610092 6.59375l0 -1.875l1.875 0l0 1.875l-1.875 0zm4.277054 -3.53125l1.640625 -0.21875q0.28125 1.40625 0.953125 2.015625q0.6875 0.609375 1.65625 0.609375q1.15625 0 1.953125 -0.796875q0.796875 -0.796875 0.796875 -1.984375q0 -1.125 -0.734375 -1.859375q-0.734375 -0.734375 -1.875 -0.734375q-0.46875 0 -1.15625 0.171875l0.1875 -1.4375q0.15625 0.015625 0.265625 0.015625q1.046875 0 1.875 -0.546875q0.84375 -0.546875 0.84375 -1.671875q0 -0.90625 -0.609375 -1.5q-0.609375 -0.59375 -1.578125 -0.59375q-0.953125 0 -1.59375 0.609375q-0.640625 0.59375 -0.8125 1.796875l-1.640625 -0.296875q0.296875 -1.640625 1.359375 -2.546875q1.0625 -0.90625 2.65625 -0.90625q1.09375 0 2.0 0.46875q0.921875 0.46875 1.40625 1.28125q0.5 0.8125 0.5 1.71875q0 0.859375 -0.46875 1.578125q-0.46875 0.703125 -1.375 1.125q1.1875 0.28125 1.84375 1.140625q0.65625 0.859375 0.65625 2.15625q0 1.734375 -1.28125 2.953125q-1.265625 1.21875 -3.21875 1.21875q-1.765625 0 -2.921875 -1.046875q-1.15625 -1.046875 -1.328125 -2.71875z" fill-rule="nonzero"/><path fill="#ffffff" d="m133.02362 109.2574l0 0c0 -4.9895096 4.0448 -9.034302 9.034302 -9.034302l36.136124 0l0 0c2.3960419 0 4.6939545 0.9518204 6.388214 2.6460876c1.6942596 1.6942596 2.6460876 3.9921646 2.6460876 6.388214l0 39.19124c0 4.989502 -4.0448 9.034302 -9.034302 9.034302l-36.136124 0l0 0c-4.989502 0 -9.034302 -4.0448 -9.034302 -9.034302z" fill-rule="evenodd"/><path stroke="#cc0000" stroke-width="1.0" stroke-linejoin="round" stroke-linecap="butt" d="m133.02362 109.2574l0 0c0 -4.9895096 4.0448 -9.034302 9.034302 -9.034302l36.136124 0l0 0c2.3960419 0 4.6939545 0.9518204 6.388214 2.6460876c1.6942596 1.6942596 2.6460876 3.9921646 2.6460876 6.388214l0 39.19124c0 4.989502 -4.0448 9.034302 -9.034302 9.034302l-36.136124 0l0 0c-4.989502 0 -9.034302 -4.0448 -9.034302 -9.034302z" fill-rule="evenodd"/><path fill="#000000" d="m151.6228 135.77301l-1.640625 0l0 -10.453117q-0.59375 0.5625 -1.5625 1.140625q-0.953125 0.5625 -1.71875 0.84375l0 -1.59375q1.375 -0.640625 2.40625 -1.5625q1.03125 -0.921875 1.453125 -1.78125l1.0625 0l0 13.406242z" fill-rule="nonzero"/><path fill="#ffffff" d="m139.8189 95.96081l0 0c0 -4.989502 4.0448 -9.034302 9.034302 -9.034302l36.136124 0l0 0c2.3960419 0 4.6939545 0.951828 6.388214 2.6460876c1.6942596 1.6942596 2.6460876 3.9921722 2.6460876 6.388214l0 39.191246c0 4.989502 -4.0448 9.034302 -9.034302 9.034302l-36.136124 0l0 0c-4.989502 0 -9.034302 -4.0448 -9.034302 -9.034302z" fill-rule="evenodd"/><path stroke="#cc0000" stroke-width="1.0" stroke-linejoin="round" stroke-linecap="butt" d="m139.8189 95.96081l0 0c0 -4.989502 4.0448 -9.034302 9.034302 -9.034302l36.136124 0l0 0c2.3960419 0 4.6939545 0.951828 6.388214 2.6460876c1.6942596 1.6942596 2.6460876 3.9921722 2.6460876 6.388214l0 39.191246c0 4.989502 -4.0448 9.034302 -9.034302 9.034302l-36.136124 0l0 0c-4.989502 0 -9.034302 -4.0448 -9.034302 -9.034302z" fill-rule="evenodd"/><path fill="#000000" d="m158.41808 122.476425l-1.640625 0l0 -10.453125q-0.59375 0.5625 -1.5625 1.140625q-0.953125 0.5625 -1.71875 0.84375l0 -1.59375q1.375 -0.640625 2.40625 -1.5625q1.03125 -0.921875 1.453125 -1.78125l1.0625 0l0 13.40625z" fill-rule="nonzero"/><path fill="#ffffff" d="m146.61417 84.70884l0 0c0 -4.989502 4.0448 -9.034302 9.034302 -9.034302l36.136124 0l0 0c2.3960571 0 4.6939545 0.951828 6.388214 2.6460876c1.6942596 1.6942596 2.6460876 3.9921722 2.6460876 6.388214l0 39.191246c0 4.989502 -4.0447845 9.034302 -9.034302 9.034302l-36.136124 0l0 0c-4.989502 0 -9.034302 -4.0448 -9.034302 -9.034302z" fill-rule="evenodd"/><path stroke="#cc0000" stroke-width="1.0" stroke-linejoin="round" stroke-linecap="butt" d="m146.61417 84.70884l0 0c0 -4.989502 4.0448 -9.034302 9.034302 -9.034302l36.136124 0l0 0c2.3960571 0 4.6939545 0.951828 6.388214 2.6460876c1.6942596 1.6942596 2.6460876 3.9921722 2.6460876 6.388214l0 39.191246c0 4.989502 -4.0447845 9.034302 -9.034302 9.034302l-36.136124 0l0 0c-4.989502 0 -9.034302 -4.0448 -9.034302 -9.034302z" fill-rule="evenodd"/><path fill="#000000" d="m165.21335 111.22446l-1.640625 0l0 -10.453125q-0.59375 0.5625 -1.5625 1.140625q-0.953125 0.5625 -1.71875 0.84375l0 -1.59375q1.375 -0.640625 2.40625 -1.5625q1.03125 -0.921875 1.453125 -1.78125l1.0625 0l0 13.40625z" fill-rule="nonzero"/><path fill="#ffffff" d="m157.49869 69.36764l0 0c0 -4.9895096 4.0448 -9.034306 9.034302 -9.034306l36.136124 0l0 0c2.3960419 0 4.6939545 0.951828 6.388214 2.6460876c1.6942596 1.6942558 2.6460876 3.9921684 2.6460876 6.388218l0 39.19124c0 4.989502 -4.0448 9.034302 -9.034302 9.034302l-36.136124 0l0 0c-4.989502 0 -9.034302 -4.0448 -9.034302 -9.034302z" fill-rule="evenodd"/><path stroke="#cc0000" stroke-width="1.0" stroke-linejoin="round" stroke-linecap="butt" d="m157.49869 69.36764l0 0c0 -4.9895096 4.0448 -9.034306 9.034302 -9.034306l36.136124 0l0 0c2.3960419 0 4.6939545 0.951828 6.388214 2.6460876c1.6942596 1.6942558 2.6460876 3.9921684 2.6460876 6.388218l0 39.19124c0 4.989502 -4.0448 9.034302 -9.034302 9.034302l-36.136124 0l0 0c-4.989502 0 -9.034302 -4.0448 -9.034302 -9.034302z" fill-rule="evenodd"/><path fill="#000000" d="m176.09787 95.883255l-1.640625 0l0 -10.453125q-0.59375 0.5625 -1.5625 1.140625q-0.953125 0.5625 -1.71875 0.84375l0 -1.59375q1.375 -0.640625 2.40625 -1.5625q1.03125 -0.921875 1.453125 -1.78125l1.0625 0l0 13.40625z" fill-rule="nonzero"/><path fill="#ffffff" d="m166.34383 51.997555l0 0c0 -4.989506 4.0448 -9.034302 9.034302 -9.034302l36.136124 0l0 0c2.3960419 0 4.6939545 0.951828 6.388214 2.6460876c1.6942596 1.6942596 2.6460876 3.9921684 2.6460876 6.388214l0 39.191242c0 4.989502 -4.0447845 9.034302 -9.034302 9.034302l-36.136124 0l0 0c-4.989502 0 -9.034302 -4.0448 -9.034302 -9.034302z" fill-rule="evenodd"/><path stroke="#cc0000" stroke-width="1.0" stroke-linejoin="round" stroke-linecap="butt" d="m166.34383 51.997555l0 0c0 -4.989506 4.0448 -9.034302 9.034302 -9.034302l36.136124 0l0 0c2.3960419 0 4.6939545 0.951828 6.388214 2.6460876c1.6942596 1.6942596 2.6460876 3.9921684 2.6460876 6.388214l0 39.191242c0 4.989502 -4.0447845 9.034302 -9.034302 9.034302l-36.136124 0l0 0c-4.989502 0 -9.034302 -4.0448 -9.034302 -9.034302z" fill-rule="evenodd"/><path fill="#000000" d="m178.77113 71.919426q0 -2.359375 0.484375 -3.796875q0.484375 -1.453125 1.4375 -2.234375q0.96875 -0.78125 2.421875 -0.78125q1.078125 0 1.890625 0.4375q0.8125 0.421875 1.328125 1.25q0.53125 0.8125 0.828125 1.984375q0.3125 1.15625 0.3125 3.140625q0 2.359375 -0.484375 3.8125q-0.484375 1.4375 -1.453125 2.234375q-0.953125 0.78125 -2.421875 0.78125q-1.921875 0 -3.03125 -1.390625q-1.3125 -1.671875 -1.3125 -5.4375zm1.671875 0q0 3.296875 0.765625 4.390625q0.78125 1.078125 1.90625 1.078125q1.140625 0 1.90625 -1.09375q0.765625 -1.09375 0.765625 -4.375q0 -3.296875 -0.765625 -4.375q-0.765625 -1.078125 -1.921875 -1.078125q-1.125 0 -1.796875 0.953125q-0.859375 1.21875 -0.859375 4.5zm9.610092 6.59375l0 -1.875l1.875 0l0 1.875l-1.875 0zm9.527054 0l0 -3.203125l-5.796875 0l0 -1.5l6.09375 -8.65625l1.34375 0l0 8.65625l1.796875 0l0 1.5l-1.796875 0l0 3.203125l-1.640625 0zm0 -4.703125l0 -6.015625l-4.1875 6.015625l4.1875 0z" fill-rule="nonzero"/><path fill="#ffffff" d="m232.88452 113.33876l0 0c0 -4.989502 4.0447845 -9.034302 9.034302 -9.034302l36.13611 0l0 0c2.3960571 0 4.6939697 0.951828 6.388214 2.6460876c1.6942749 1.6942596 2.6460876 3.9921722 2.6460876 6.388214l0 39.19124c0 4.989517 -4.0448 9.034302 -9.034302 9.034302l-36.13611 0l0 0c-4.989517 0 -9.034302 -4.0447845 -9.034302 -9.034302z" fill-rule="evenodd"/><path stroke="#cc0000" stroke-width="1.0" stroke-linejoin="round" stroke-linecap="butt" d="m232.88452 113.33876l0 0c0 -4.989502 4.0447845 -9.034302 9.034302 -9.034302l36.13611 0l0 0c2.3960571 0 4.6939697 0.951828 6.388214 2.6460876c1.6942749 1.6942596 2.6460876 3.9921722 2.6460876 6.388214l0 39.19124c0 4.989517 -4.0448 9.034302 -9.034302 9.034302l-36.13611 0l0 0c-4.989517 0 -9.034302 -4.0447845 -9.034302 -9.034302z" fill-rule="evenodd"/><path fill="#000000" d="m251.48369 139.85439l-1.640625 0l0 -10.453125q-0.59375 0.5625 -1.5625 1.140625q-0.953125 0.5625 -1.71875 0.84375l0 -1.59375q1.375 -0.640625 2.40625 -1.5625q1.03125 -0.9218826 1.453125 -1.7812576l1.0625 0l0 13.406258z" fill-rule="nonzero"/><path fill="#ffffff" d="m239.6798 100.042175l0 0c0 -4.9895096 4.0447845 -9.034302 9.034302 -9.034302l36.136124 0l0 0c2.3960266 0 4.693939 0.951828 6.388214 2.6460876c1.6942444 1.6942596 2.6460876 3.9921722 2.6460876 6.388214l0 39.19124c0 4.989502 -4.0448 9.034302 -9.034302 9.034302l-36.136124 0l0 0c-4.989517 0 -9.034302 -4.0448 -9.034302 -9.034302z" fill-rule="evenodd"/><path stroke="#cc0000" stroke-width="1.0" stroke-linejoin="round" stroke-linecap="butt" d="m239.6798 100.042175l0 0c0 -4.9895096 4.0447845 -9.034302 9.034302 -9.034302l36.136124 0l0 0c2.3960266 0 4.693939 0.951828 6.388214 2.6460876c1.6942444 1.6942596 2.6460876 3.9921722 2.6460876 6.388214l0 39.19124c0 4.989502 -4.0448 9.034302 -9.034302 9.034302l-36.136124 0l0 0c-4.989517 0 -9.034302 -4.0448 -9.034302 -9.034302z" fill-rule="evenodd"/><path fill="#000000" d="m258.27896 126.55779l-1.640625 0l0 -10.453125q-0.59375 0.5625 -1.5624847 1.140625q-0.953125 0.5625 -1.71875 0.84375l0 -1.59375q1.375 -0.640625 2.40625 -1.5625q1.0312347 -0.921875 1.4531097 -1.78125l1.0625 0l0 13.40625z" fill-rule="nonzero"/><path fill="#ffffff" d="m246.47507 88.79021l0 0c0 -4.9895096 4.0448 -9.034302 9.034302 -9.034302l36.13611 0l0 0c2.3960571 0 4.6939697 0.951828 6.388214 2.6460876c1.6942749 1.6942596 2.6460876 3.9921646 2.6460876 6.388214l0 39.19124c0 4.989502 -4.0447693 9.034302 -9.034302 9.034302l-36.13611 0l0 0c-4.989502 0 -9.034302 -4.0448 -9.034302 -9.034302z" fill-rule="evenodd"/><path stroke="#cc0000" stroke-width="1.0" stroke-linejoin="round" stroke-linecap="butt" d="m246.47507 88.79021l0 0c0 -4.9895096 4.0448 -9.034302 9.034302 -9.034302l36.13611 0l0 0c2.3960571 0 4.6939697 0.951828 6.388214 2.6460876c1.6942749 1.6942596 2.6460876 3.9921646 2.6460876 6.388214l0 39.19124c0 4.989502 -4.0447693 9.034302 -9.034302 9.034302l-36.13611 0l0 0c-4.989502 0 -9.034302 -4.0448 -9.034302 -9.034302z" fill-rule="evenodd"/><path fill="#000000" d="m265.07425 115.305824l-1.640625 0l0 -10.453125q-0.59375 0.5625 -1.5625 1.140625q-0.953125 0.5625 -1.71875 0.84375l0 -1.59375q1.375 -0.640625 2.40625 -1.5625q1.03125 -0.921875 1.453125 -1.78125l1.0625 0l0 13.40625z" fill-rule="nonzero"/><path fill="#ffffff" d="m257.3596 73.449l0 0c0 -4.989502 4.0448 -9.034302 9.034302 -9.034302l36.13611 0l0 0c2.3960571 0 4.6939697 0.951828 6.388214 2.6460876c1.6942749 1.6942596 2.6460876 3.9921722 2.6460876 6.388214l0 39.19124c0 4.9895096 -4.0448 9.034302 -9.034302 9.034302l-36.13611 0l0 0c-4.989502 0 -9.034302 -4.044792 -9.034302 -9.034302z" fill-rule="evenodd"/><path stroke="#cc0000" stroke-width="1.0" stroke-linejoin="round" stroke-linecap="butt" d="m257.3596 73.449l0 0c0 -4.989502 4.0448 -9.034302 9.034302 -9.034302l36.13611 0l0 0c2.3960571 0 4.6939697 0.951828 6.388214 2.6460876c1.6942749 1.6942596 2.6460876 3.9921722 2.6460876 6.388214l0 39.19124c0 4.9895096 -4.0448 9.034302 -9.034302 9.034302l-36.13611 0l0 0c-4.989502 0 -9.034302 -4.044792 -9.034302 -9.034302z" fill-rule="evenodd"/><path fill="#000000" d="m275.95877 99.964615l-1.640625 0l0 -10.453125q-0.59375 0.5625 -1.5625 1.140625q-0.953125 0.5625 -1.71875 0.84375l0 -1.59375q1.375 -0.640625 2.40625 -1.5625q1.03125 -0.921875 1.453125 -1.78125l1.0625 0l0 13.40625z" fill-rule="nonzero"/><path fill="#ffffff" d="m266.2047 56.078922l0 0c0 -4.9895096 4.0448 -9.034302 9.034302 -9.034302l36.13614 0l0 0c2.3960266 0 4.693939 0.9518242 6.388214 2.6460838c1.6942444 1.6942596 2.6460876 3.9921722 2.6460876 6.388218l0 39.191235c0 4.9895096 -4.0448 9.034302 -9.034302 9.034302l-36.13614 0l0 0c-4.989502 0 -9.034302 -4.044792 -9.034302 -9.034302z" fill-rule="evenodd"/><path stroke="#cc0000" stroke-width="1.0" stroke-linejoin="round" stroke-linecap="butt" d="m266.2047 56.078922l0 0c0 -4.9895096 4.0448 -9.034302 9.034302 -9.034302l36.13614 0l0 0c2.3960266 0 4.693939 0.9518242 6.388214 2.6460838c1.6942444 1.6942596 2.6460876 3.9921722 2.6460876 6.388218l0 39.191235c0 4.9895096 -4.0448 9.034302 -9.034302 9.034302l-36.13614 0l0 0c-4.989502 0 -9.034302 -4.044792 -9.034302 -9.034302z" fill-rule="evenodd"/><path fill="#000000" d="m278.63202 76.000786q0 -2.359375 0.484375 -3.796875q0.484375 -1.453125 1.4375 -2.234375q0.96875 -0.78125 2.421875 -0.78125q1.078125 0 1.890625 0.4375q0.8125 0.421875 1.328125 1.25q0.53125 0.8125 0.828125 1.984375q0.3125 1.15625 0.3125 3.140625q0 2.359375 -0.484375 3.8125q-0.484375 1.4375 -1.453125 2.234375q-0.953125 0.78125 -2.421875 0.78125q-1.921875 0 -3.03125 -1.390625q-1.3125 -1.671875 -1.3125 -5.4375zm1.671875 0q0 3.296875 0.765625 4.390625q0.78125 1.078125 1.90625 1.078125q1.140625 0 1.90625 -1.09375q0.765625 -1.09375 0.765625 -4.375q0 -3.296875 -0.765625 -4.375q-0.765625 -1.078125 -1.921875 -1.078125q-1.125 0 -1.796875 0.953125q-0.859375 1.21875 -0.859375 4.5zm9.610107 6.59375l0 -1.875l1.875 0l0 1.875l-1.875 0zm12.886414 -1.578125l0 1.578125l-8.828125 0q-0.015625 -0.59375 0.1875 -1.140625q0.34375 -0.90625 1.078125 -1.78125q0.75 -0.875 2.15625 -2.015625q2.171875 -1.78125 2.9375 -2.828125q0.765625 -1.046875 0.765625 -1.96875q0 -0.984375 -0.703125 -1.640625q-0.6875 -0.671875 -1.8125 -0.671875q-1.1875 0 -1.90625 0.71875q-0.703125 0.703125 -0.703125 1.953125l-1.6875 -0.171875q0.171875 -1.890625 1.296875 -2.875q1.140625 -0.984375 3.03125 -0.984375q1.921875 0 3.046875 1.0625q1.125 1.0625 1.125 2.640625q0 0.796875 -0.328125 1.578125q-0.328125 0.78125 -1.09375 1.640625q-0.75 0.84375 -2.53125 2.34375q-1.46875 1.234375 -1.890625 1.6875q-0.421875 0.4375 -0.6875 0.875l6.546875 0z" fill-rule="nonzero"/><path fill="#ffffff" d="m321.8609 117.42013l0 0c0 -4.9895096 4.0448 -9.034302 9.034302 -9.034302l36.13611 0l0 0c2.3960571 0 4.6939697 0.951828 6.388214 2.6460876c1.6942749 1.6942596 2.6460876 3.9921722 2.6460876 6.388214l0 39.191246c0 4.989502 -4.0448 9.034302 -9.034302 9.034302l-36.13611 0l0 0c-4.989502 0 -9.034302 -4.0448 -9.034302 -9.034302z" fill-rule="evenodd"/><path stroke="#cc0000" stroke-width="1.0" stroke-linejoin="round" stroke-linecap="butt" d="m321.8609 117.42013l0 0c0 -4.9895096 4.0448 -9.034302 9.034302 -9.034302l36.13611 0l0 0c2.3960571 0 4.6939697 0.951828 6.388214 2.6460876c1.6942749 1.6942596 2.6460876 3.9921722 2.6460876 6.388214l0 39.191246c0 4.989502 -4.0448 9.034302 -9.034302 9.034302l-36.13611 0l0 0c-4.989502 0 -9.034302 -4.0448 -9.034302 -9.034302z" fill-rule="evenodd"/><path fill="#000000" d="m340.46008 143.93575l-1.640625 0l0 -10.453125q-0.59375 0.5625 -1.5625 1.140625q-0.953125 0.5625 -1.71875 0.84375l0 -1.59375q1.375 -0.640625 2.40625 -1.5625q1.03125 -0.921875 1.453125 -1.78125l1.0625 0l0 13.40625z" fill-rule="nonzero"/><path fill="#ffffff" d="m328.65616 104.12354l0 0c0 -4.9895096 4.0448 -9.034302 9.034302 -9.034302l36.13614 0l0 0c2.3960266 0 4.693939 0.9518204 6.388214 2.64608c1.6942444 1.6942673 2.6460876 3.9921722 2.6460876 6.3882217l0 39.19123c0 4.989517 -4.0448 9.034302 -9.034302 9.034302l-36.13614 0l0 0c-4.989502 0 -9.034302 -4.0447845 -9.034302 -9.034302z" fill-rule="evenodd"/><path stroke="#cc0000" stroke-width="1.0" stroke-linejoin="round" stroke-linecap="butt" d="m328.65616 104.12354l0 0c0 -4.9895096 4.0448 -9.034302 9.034302 -9.034302l36.13614 0l0 0c2.3960266 0 4.693939 0.9518204 6.388214 2.64608c1.6942444 1.6942673 2.6460876 3.9921722 2.6460876 6.3882217l0 39.19123c0 4.989517 -4.0448 9.034302 -9.034302 9.034302l-36.13614 0l0 0c-4.989502 0 -9.034302 -4.0447845 -9.034302 -9.034302z" fill-rule="evenodd"/><path fill="#000000" d="m347.25534 130.63916l-1.640625 0l0 -10.453125q-0.59375 0.5625 -1.5625 1.140625q-0.953125 0.5625 -1.71875 0.84375l0 -1.59375q1.375 -0.640625 2.40625 -1.5625q1.03125 -0.921875 1.453125 -1.78125l1.0625 0l0 13.40625z" fill-rule="nonzero"/><path fill="#ffffff" d="m335.45145 92.871574l0 0c0 -4.9895096 4.0448 -9.034302 9.034302 -9.034302l36.13611 0l0 0c2.3960571 0 4.6939697 0.9518204 6.388214 2.64608c1.6942749 1.6942673 2.6460876 3.9921722 2.6460876 6.3882217l0 39.19123c0 4.989517 -4.0448 9.034302 -9.034302 9.034302l-36.13611 0l0 0c-4.989502 0 -9.034302 -4.0447845 -9.034302 -9.034302z" fill-rule="evenodd"/><path stroke="#cc0000" stroke-width="1.0" stroke-linejoin="round" stroke-linecap="butt" d="m335.45145 92.871574l0 0c0 -4.9895096 4.0448 -9.034302 9.034302 -9.034302l36.13611 0l0 0c2.3960571 0 4.6939697 0.9518204 6.388214 2.64608c1.6942749 1.6942673 2.6460876 3.9921722 2.6460876 6.3882217l0 39.19123c0 4.989517 -4.0448 9.034302 -9.034302 9.034302l-36.13611 0l0 0c-4.989502 0 -9.034302 -4.0447845 -9.034302 -9.034302z" fill-rule="evenodd"/><path fill="#000000" d="m354.05063 119.38719l-1.640625 0l0 -10.453125q-0.59375 0.5625 -1.5625 1.140625q-0.953125 0.5625 -1.71875 0.84375l0 -1.59375q1.375 -0.640625 2.40625 -1.5625q1.03125 -0.921875 1.453125 -1.78125l1.0625 0l0 13.40625z" fill-rule="nonzero"/><path fill="#ffffff" d="m346.33597 77.530365l0 0c0 -4.9895096 4.0447693 -9.034302 9.034302 -9.034302l36.13611 0l0 0c2.3960571 0 4.6939697 0.951828 6.388214 2.6460876c1.6942749 1.6942596 2.6460876 3.9921646 2.6460876 6.388214l0 39.19124c0 4.9895096 -4.0448 9.034302 -9.034302 9.034302l-36.13611 0l0 0c-4.9895325 0 -9.034302 -4.044792 -9.034302 -9.034302z" fill-rule="evenodd"/><path stroke="#cc0000" stroke-width="1.0" stroke-linejoin="round" stroke-linecap="butt" d="m346.33597 77.530365l0 0c0 -4.9895096 4.0447693 -9.034302 9.034302 -9.034302l36.13611 0l0 0c2.3960571 0 4.6939697 0.951828 6.388214 2.6460876c1.6942749 1.6942596 2.6460876 3.9921646 2.6460876 6.388214l0 39.19124c0 4.9895096 -4.0448 9.034302 -9.034302 9.034302l-36.13611 0l0 0c-4.9895325 0 -9.034302 -4.044792 -9.034302 -9.034302z" fill-rule="evenodd"/><path fill="#000000" d="m364.93515 104.04598l-1.640625 0l0 -10.453125q-0.59375 0.5625 -1.5625 1.140625q-0.953125 0.5625 -1.71875 0.84375l0 -1.59375q1.375 -0.640625 2.40625 -1.5625q1.03125 -0.921875 1.453125 -1.78125l1.0625 0l0 13.40625z" fill-rule="nonzero"/><path fill="#ffffff" d="m355.1811 60.160286l0 0c0 -4.989506 4.0448 -9.034302 9.034302 -9.034302l36.13614 0l0 0c2.3960266 0 4.693939 0.9518242 6.388214 2.6460838c1.6942444 1.6942635 2.6460876 3.9921722 2.6460876 6.388218l0 39.19124c0 4.9895096 -4.0448 9.034302 -9.034302 9.034302l-36.13614 0l0 0c-4.989502 0 -9.034302 -4.044792 -9.034302 -9.034302z" fill-rule="evenodd"/><path stroke="#cc0000" stroke-width="1.0" stroke-linejoin="round" stroke-linecap="butt" d="m355.1811 60.160286l0 0c0 -4.989506 4.0448 -9.034302 9.034302 -9.034302l36.13614 0l0 0c2.3960266 0 4.693939 0.9518242 6.388214 2.6460838c1.6942444 1.6942635 2.6460876 3.9921722 2.6460876 6.388218l0 39.19124c0 4.9895096 -4.0448 9.034302 -9.034302 9.034302l-36.13614 0l0 0c-4.989502 0 -9.034302 -4.044792 -9.034302 -9.034302z" fill-rule="evenodd"/><path fill="#000000" d="m367.6084 80.08215q0 -2.359375 0.484375 -3.796875q0.484375 -1.453125 1.4375 -2.234375q0.96875 -0.78125 2.421875 -0.78125q1.078125 0 1.890625 0.4375q0.8125 0.421875 1.328125 1.25q0.53125 0.8125 0.828125 1.984375q0.3125 1.15625 0.3125 3.140625q0 2.359375 -0.484375 3.8125q-0.484375 1.4375 -1.453125 2.234375q-0.953125 0.78125 -2.421875 0.78125q-1.921875 0 -3.03125 -1.390625q-1.3125 -1.671875 -1.3125 -5.4375zm1.671875 0q0 3.296875 0.765625 4.390625q0.78125 1.078125 1.90625 1.078125q1.140625 0 1.90625 -1.09375q0.765625 -1.09375 0.765625 -4.375q0 -3.296875 -0.765625 -4.375q-0.765625 -1.078125 -1.921875 -1.078125q-1.125 0 -1.796875 0.953125q-0.859375 1.21875 -0.859375 4.5zm9.610107 6.59375l0 -1.875l1.875 0l0 1.875l-1.875 0zm10.448914 0l-1.640625 0l0 -10.453125q-0.59375 0.5625 -1.5625 1.140625q-0.953125 0.5625 -1.71875 0.84375l0 -1.59375q1.375 -0.640625 2.40625 -1.5625q1.03125 -0.921875 1.453125 -1.78125l1.0625 0l0 13.40625z" fill-rule="nonzero"/><path fill="#cc0000" d="m439.7743 96.13386l100.22046 0l0 -14.314957l28.629944 28.629921l-28.629944 28.629913l0 -14.314957l-100.22046 0z" fill-rule="evenodd"/><path fill="#ffffff" d="m625.5381 117.42013l0 0c0 -4.9895096 4.044739 -9.034302 9.034302 -9.034302l36.13611 0l0 0c2.3960571 0 4.6939697 0.951828 6.3881836 2.6460876c1.6942749 1.6942596 2.6461182 3.9921722 2.6461182 6.388214l0 39.191246c0 4.989502 -4.0448 9.034302 -9.034302 9.034302l-36.13611 0l0 0c-4.989563 0 -9.034302 -4.0448 -9.034302 -9.034302z" fill-rule="evenodd"/><path stroke="#cc0000" stroke-width="1.0" stroke-linejoin="round" stroke-linecap="butt" d="m625.5381 117.42013l0 0c0 -4.9895096 4.044739 -9.034302 9.034302 -9.034302l36.13611 0l0 0c2.3960571 0 4.6939697 0.951828 6.3881836 2.6460876c1.6942749 1.6942596 2.6461182 3.9921722 2.6461182 6.388214l0 39.191246c0 4.989502 -4.0448 9.034302 -9.034302 9.034302l-36.13611 0l0 0c-4.989563 0 -9.034302 -4.0448 -9.034302 -9.034302z" fill-rule="evenodd"/><path fill="#000000" d="m644.13727 143.93575l-1.640625 0l0 -10.453125q-0.59375 0.5625 -1.5625 1.140625q-0.953125 0.5625 -1.71875 0.84375l0 -1.59375q1.375 -0.640625 2.40625 -1.5625q1.03125 -0.921875 1.453125 -1.78125l1.0625 0l0 13.40625z" fill-rule="nonzero"/><path fill="#ffffff" d="m632.3333 104.12354l0 0c0 -4.9895096 4.0448 -9.034302 9.034302 -9.034302l36.13617 0l0 0c2.395996 0 4.6939087 0.9518204 6.3881836 2.64608c1.6942749 1.6942673 2.6461182 3.9921722 2.6461182 6.3882217l0 39.19123c0 4.989517 -4.0448 9.034302 -9.034302 9.034302l-36.13617 0l0 0c-4.989502 0 -9.034302 -4.0447845 -9.034302 -9.034302z" fill-rule="evenodd"/><path stroke="#cc0000" stroke-width="1.0" stroke-linejoin="round" stroke-linecap="butt" d="m632.3333 104.12354l0 0c0 -4.9895096 4.0448 -9.034302 9.034302 -9.034302l36.13617 0l0 0c2.395996 0 4.6939087 0.9518204 6.3881836 2.64608c1.6942749 1.6942673 2.6461182 3.9921722 2.6461182 6.3882217l0 39.19123c0 4.989517 -4.0448 9.034302 -9.034302 9.034302l-36.13617 0l0 0c-4.989502 0 -9.034302 -4.0447845 -9.034302 -9.034302z" fill-rule="evenodd"/><path fill="#000000" d="m650.9325 130.63916l-1.640625 0l0 -10.453125q-0.59375 0.5625 -1.5625 1.140625q-0.953125 0.5625 -1.71875 0.84375l0 -1.59375q1.375 -0.640625 2.40625 -1.5625q1.03125 -0.921875 1.453125 -1.78125l1.0625 0l0 13.40625z" fill-rule="nonzero"/><path fill="#ffffff" d="m639.1286 92.871574l0 0c0 -4.9895096 4.0448 -9.034302 9.034302 -9.034302l36.13611 0l0 0c2.3960571 0 4.6939697 0.9518204 6.3882446 2.64608c1.6942749 1.6942673 2.6460571 3.9921722 2.6460571 6.3882217l0 39.19123c0 4.989517 -4.0448 9.034302 -9.034302 9.034302l-36.13611 0l0 0c-4.989502 0 -9.034302 -4.0447845 -9.034302 -9.034302z" fill-rule="evenodd"/><path stroke="#cc0000" stroke-width="1.0" stroke-linejoin="round" stroke-linecap="butt" d="m639.1286 92.871574l0 0c0 -4.9895096 4.0448 -9.034302 9.034302 -9.034302l36.13611 0l0 0c2.3960571 0 4.6939697 0.9518204 6.3882446 2.64608c1.6942749 1.6942673 2.6460571 3.9921722 2.6460571 6.3882217l0 39.19123c0 4.989517 -4.0448 9.034302 -9.034302 9.034302l-36.13611 0l0 0c-4.989502 0 -9.034302 -4.0447845 -9.034302 -9.034302z" fill-rule="evenodd"/><path fill="#000000" d="m657.7278 119.38719l-1.640625 0l0 -10.453125q-0.59375 0.5625 -1.5625 1.140625q-0.953125 0.5625 -1.71875 0.84375l0 -1.59375q1.375 -0.640625 2.40625 -1.5625q1.03125 -0.921875 1.453125 -1.78125l1.0625 0l0 13.40625z" fill-rule="nonzero"/><path fill="#ffffff" d="m650.0131 77.530365l0 0c0 -4.9895096 4.0448 -9.034302 9.034302 -9.034302l36.13611 0l0 0c2.3960571 0 4.6939697 0.951828 6.3882446 2.6460876c1.6942749 1.6942596 2.6460571 3.9921646 2.6460571 6.388214l0 39.19124c0 4.9895096 -4.0448 9.034302 -9.034302 9.034302l-36.13611 0l0 0c-4.989502 0 -9.034302 -4.044792 -9.034302 -9.034302z" fill-rule="evenodd"/><path stroke="#cc0000" stroke-width="1.0" stroke-linejoin="round" stroke-linecap="butt" d="m650.0131 77.530365l0 0c0 -4.9895096 4.0448 -9.034302 9.034302 -9.034302l36.13611 0l0 0c2.3960571 0 4.6939697 0.951828 6.3882446 2.6460876c1.6942749 1.6942596 2.6460571 3.9921646 2.6460571 6.388214l0 39.19124c0 4.9895096 -4.0448 9.034302 -9.034302 9.034302l-36.13611 0l0 0c-4.989502 0 -9.034302 -4.044792 -9.034302 -9.034302z" fill-rule="evenodd"/><path fill="#000000" d="m668.6123 104.04598l-1.640625 0l0 -10.453125q-0.59375 0.5625 -1.5625 1.140625q-0.953125 0.5625 -1.71875 0.84375l0 -1.59375q1.375 -0.640625 2.40625 -1.5625q1.03125 -0.921875 1.453125 -1.78125l1.0625 0l0 13.40625z" fill-rule="nonzero"/><path fill="#ffffff" d="m658.8583 60.160286l0 0c0 -4.989506 4.0448 -9.034302 9.034302 -9.034302l36.13611 0l0 0c2.3960571 0 4.6939697 0.9518242 6.3882446 2.6460838c1.6942139 1.6942635 2.6460571 3.9921722 2.6460571 6.388218l0 39.19124c0 4.9895096 -4.0448 9.034302 -9.034302 9.034302l-36.13611 0l0 0c-4.989502 0 -9.034302 -4.044792 -9.034302 -9.034302z" fill-rule="evenodd"/><path stroke="#cc0000" stroke-width="1.0" stroke-linejoin="round" stroke-linecap="butt" d="m658.8583 60.160286l0 0c0 -4.989506 4.0448 -9.034302 9.034302 -9.034302l36.13611 0l0 0c2.3960571 0 4.6939697 0.9518242 6.3882446 2.6460838c1.6942139 1.6942635 2.6460571 3.9921722 2.6460571 6.388218l0 39.19124c0 4.9895096 -4.0448 9.034302 -9.034302 9.034302l-36.13611 0l0 0c-4.989502 0 -9.034302 -4.044792 -9.034302 -9.034302z" fill-rule="evenodd"/><path fill="#000000" d="m671.2856 80.08215q0 -2.359375 0.484375 -3.796875q0.484375 -1.453125 1.4375 -2.234375q0.96875 -0.78125 2.421875 -0.78125q1.078125 0 1.890625 0.4375q0.8125 0.421875 1.328125 1.25q0.53125 0.8125 0.828125 1.984375q0.3125 1.15625 0.3125 3.140625q0 2.359375 -0.484375 3.8125q-0.484375 1.4375 -1.453125 2.234375q-0.953125 0.78125 -2.421875 0.78125q-1.921875 0 -3.03125 -1.390625q-1.3125 -1.671875 -1.3125 -5.4375zm1.671875 0q0 3.296875 0.765625 4.390625q0.78125 1.078125 1.90625 1.078125q1.140625 0 1.90625 -1.09375q0.765625 -1.09375 0.765625 -4.375q0 -3.296875 -0.765625 -4.375q-0.765625 -1.078125 -1.921875 -1.078125q-1.125 0 -1.796875 0.953125q-0.859375 1.21875 -0.859375 4.5zm9.610107 6.59375l0 -1.875l1.875 0l0 1.875l-1.875 0zm10.448914 0l-1.640625 0l0 -10.453125q-0.59375 0.5625 -1.5625 1.140625q-0.953125 0.5625 -1.71875 0.84375l0 -1.59375q1.375 -0.640625 2.40625 -1.5625q1.03125 -0.921875 1.453125 -1.78125l1.0625 0l0 13.40625z" fill-rule="nonzero"/><path fill="#cc0000" d="m149.04462 169.77165l6.9047394 8.4409485l-4.220459 0l0 0c-5.911438 15.978714 -27.506653 26.63379 -51.062233 25.194107l0 0c20.420158 -1.2480621 37.496696 -11.34227 42.621284 -25.194107l-4.2204742 0z" fill-rule="evenodd"/><path fill="#a30000" d="m96.4462 203.53543c-26.718407 0 -48.377956 -15.116562 -48.377956 -33.76378l8.440945 0l0 0c0 18.647217 21.659546 33.76378 48.377953 33.76378z" fill-rule="evenodd"/><path fill="#000000" fill-opacity="0.0" d="m100.666664 203.40671l0 0c20.420158 -1.2480621 37.496696 -11.34227 42.621284 -25.194107l-4.2204742 0l9.977142 -8.4409485l6.9047394 8.4409485l-4.220459 0l0 0c-5.5150757 14.907333 -24.781494 25.32283 -46.84176 25.32283l-8.440941 0c-26.718407 0 -48.377956 -15.116562 -48.377956 -33.76378l8.440945 0l0 0c0 18.647217 21.659546 33.76378 48.377953 33.76378" fill-rule="evenodd"/><path fill="#cc0000" d="m249.7769 169.77165l7.056259 8.4409485l-4.2204742 0l0 0c-5.36792 16.097336 -25.071182 26.773407 -46.442078 25.164322l0 0c18.237167 -1.3731384 33.420334 -11.427429 38.001144 -25.164322l-4.2204742 0z" fill-rule="evenodd"/><path fill="#a30000" d="m201.95013 203.53543c-24.0831 0 -43.606308 -15.116562 -43.606308 -33.76378l8.4409485 0l0 0c0 18.647217 19.523209 33.76378 43.606308 33.76378z" fill-rule="evenodd"/><path fill="#000000" fill-opacity="0.0" d="m206.17061 203.37692l0 0c18.237167 -1.3731384 33.420334 -11.427429 38.001144 -25.164322l-4.2204742 0l9.825623 -8.4409485l7.056259 8.4409485l-4.2204742 0l0 0c-4.9710846 14.907333 -22.33722 25.32283 -42.221603 25.32283l-8.4409485 0c-24.0831 0 -43.606308 -15.116562 -43.606308 -33.76378l8.4409485 0l0 0c0 18.647217 19.523209 33.76378 43.606308 33.76378" fill-rule="evenodd"/><path fill="#cc0000" d="m357.6509 169.77165l7.0562744 8.4409485l-4.2204895 0l0 0c-5.36792 16.097336 -25.071167 26.773407 -46.442078 25.164322l0 0c18.237183 -1.3731384 33.42035 -11.427429 38.00116 -25.164322l-4.2204895 0z" fill-rule="evenodd"/><path fill="#a30000" d="m309.82416 203.53543c-24.0831 0 -43.606323 -15.116562 -43.606323 -33.76378l8.4409485 0l0 0c0 18.647217 19.523224 33.76378 43.606323 33.76378z" fill-rule="evenodd"/><path fill="#000000" fill-opacity="0.0" d="m314.04462 203.37692l0 0c18.237183 -1.3731384 33.42035 -11.427429 38.00116 -25.164322l-4.2204895 0l9.825623 -8.4409485l7.0562744 8.4409485l-4.2204895 0l0 0c-4.9710693 14.907333 -22.33722 25.32283 -42.22159 25.32283l-8.4409485 0c-24.0831 0 -43.606323 -15.116562 -43.606323 -33.76378l8.4409485 0l0 0c0 18.647217 19.523224 33.76378 43.606323 33.76378" fill-rule="evenodd"/></g></svg>